<svg viewBox="0 0 620 200" width="100%" xmlns="http://www.w3.org/2000/svg"><defs><mask id="dz"><rect x="0" y="0" width="329" height="200" fill="#fff"/><rect x="329" y="46" width="9" height="9" fill="#fff"/><rect x="329" y="56" width="9" height="9" fill="#fff"/><rect x="329" y="66" width="9" height="9" fill="#fff"/><rect x="329" y="76" width="9" height="9" fill="#fff"/><rect x="329" y="86" width="9" height="9" fill="#fff"/><rect x="329" y="96" width="9" height="9" fill="#fff"/><rect x="329" y="106" width="9" height="9" fill="#fff"/><rect x="329" y="116" width="9" height="9" fill="#fff"/><rect x="329" y="126" width="9" height="9" fill="#fff"/><rect x="329" y="136" width="9" height="9" fill="#fff"/><rect x="329" y="146" width="9" height="9" fill="#fff"/><rect x="329" y="156" width="9" height="9" fill="#fff"/><rect x="329" y="166" width="9" height="9" fill="#fff"/><rect x="339" y="46" width="9" height="9" fill="#fff"/><rect x="339" y="56" width="9" height="9" fill="#fff"/><rect x="339" y="66" width="9" height="9" fill="#fff"/><rect x="339" y="76" width="9" height="9" fill="#fff"/><rect x="339" y="86" width="9" height="9" fill="#fff"/><rect x="339" y="96" width="9" height="9" fill="#fff"/><rect x="339" y="106" width="9" height="9" fill="#fff"/><rect x="339" y="116" width="9" height="9" fill="#fff"/><rect x="339" y="126" width="9" height="9" fill="#fff"/><rect x="339" y="136" width="9" height="9" fill="#fff"/><rect x="339" y="146" width="9" height="9" fill="#fff"/><rect x="339" y="156" width="9" height="9" fill="#fff"/><rect x="339" y="166" width="9" height="9" fill="#fff"/><rect x="349" y="46" width="9" height="9" fill="#fff"/><rect x="349" y="56" width="9" height="9" fill="#fff"/><rect x="349" y="66" width="9" height="9" fill="#fff"/><rect x="349" y="86" width="9" height="9" fill="#fff"/><rect x="349" y="96" width="9" height="9" fill="#fff"/><rect x="349" y="106" width="9" height="9" fill="#fff"/><rect x="349" y="116" width="9" height="9" fill="#fff"/><rect x="349" y="126" width="9" height="9" fill="#fff"/><rect x="349" y="136" width="9" height="9" fill="#fff"/><rect x="349" y="146" width="9" height="9" fill="#fff"/><rect x="349" y="156" width="9" height="9" fill="#fff"/><rect x="359" y="46" width="9" height="9" fill="#fff"/><rect x="359" y="56" width="9" height="9" fill="#fff"/><rect x="359" y="76" width="9" height="9" fill="#fff"/><rect x="359" y="86" width="9" height="9" fill="#fff"/><rect x="359" y="106" width="9" height="9" fill="#fff"/><rect x="359" y="116" width="9" height="9" fill="#fff"/><rect x="359" y="126" width="9" height="9" fill="#fff"/><rect x="359" y="136" width="9" height="9" fill="#fff"/><rect x="359" y="146" width="9" height="9" fill="#fff"/><rect x="359" y="156" width="9" height="9" fill="#fff"/><rect x="369" y="46" width="9" height="9" fill="#fff"/><rect x="369" y="56" width="9" height="9" fill="#fff"/><rect x="369" y="66" width="9" height="9" fill="#fff"/><rect x="369" y="76" width="9" height="9" fill="#fff"/><rect x="369" y="86" width="9" height="9" fill="#fff"/><rect x="369" y="96" width="9" height="9" fill="#fff"/><rect x="369" y="106" width="9" height="9" fill="#fff"/><rect x="369" y="116" width="9" height="9" fill="#fff"/><rect x="369" y="126" width="9" height="9" fill="#fff"/><rect x="369" y="136" width="9" height="9" fill="#fff"/><rect x="369" y="146" width="9" height="9" fill="#fff"/><rect x="369" y="166" width="9" height="9" fill="#fff"/><rect x="379" y="46" width="9" height="9" fill="#fff"/><rect x="379" y="66" width="9" height="9" fill="#fff"/><rect x="379" y="86" width="9" height="9" fill="#fff"/><rect x="379" y="96" width="9" height="9" fill="#fff"/><rect x="379" y="106" width="9" height="9" fill="#fff"/><rect x="379" y="116" width="9" height="9" fill="#fff"/><rect x="379" y="126" width="9" height="9" fill="#fff"/><rect x="379" y="136" width="9" height="9" fill="#fff"/><rect x="379" y="156" width="9" height="9" fill="#fff"/><rect x="379" y="166" width="9" height="9" fill="#fff"/><rect x="389" y="46" width="9" height="9" fill="#fff"/><rect x="389" y="56" width="9" height="9" fill="#fff"/><rect x="389" y="66" width="9" height="9" fill="#fff"/><rect x="389" y="76" width="9" height="9" fill="#fff"/><rect x="389" y="96" width="9" height="9" fill="#fff"/><rect x="389" y="106" width="9" height="9" fill="#fff"/><rect x="389" y="116" width="9" height="9" fill="#fff"/><rect x="389" y="126" width="9" height="9" fill="#fff"/><rect x="389" y="146" width="9" height="9" fill="#fff"/><rect x="389" y="156" width="9" height="9" fill="#fff"/><rect x="389" y="166" width="9" height="9" fill="#fff"/><rect x="399" y="46" width="9" height="9" fill="#fff"/><rect x="399" y="76" width="9" height="9" fill="#fff"/><rect x="399" y="86" width="9" height="9" fill="#fff"/><rect x="399" y="96" width="9" height="9" fill="#fff"/><rect x="399" y="106" width="9" height="9" fill="#fff"/><rect x="399" y="126" width="9" height="9" fill="#fff"/><rect x="399" y="156" width="9" height="9" fill="#fff"/><rect x="399" y="166" width="9" height="9" fill="#fff"/><rect x="409" y="46" width="9" height="9" fill="#fff"/><rect x="409" y="56" width="9" height="9" fill="#fff"/><rect x="409" y="106" width="9" height="9" fill="#fff"/><rect x="409" y="116" width="9" height="9" fill="#fff"/><rect x="409" y="136" width="9" height="9" fill="#fff"/><rect x="419" y="66" width="9" height="9" fill="#fff"/><rect x="419" y="106" width="9" height="9" fill="#fff"/><rect x="419" y="116" width="9" height="9" fill="#fff"/><rect x="419" y="126" width="9" height="9" fill="#fff"/><rect x="419" y="156" width="9" height="9" fill="#fff"/><rect x="429" y="56" width="9" height="9" fill="#fff"/><rect x="429" y="66" width="9" height="9" fill="#fff"/><rect x="429" y="76" width="9" height="9" fill="#fff"/><rect x="429" y="136" width="9" height="9" fill="#fff"/><rect x="429" y="146" width="9" height="9" fill="#fff"/><rect x="429" y="156" width="9" height="9" fill="#fff"/><rect x="429" y="166" width="9" height="9" fill="#fff"/><rect x="439" y="46" width="9" height="9" fill="#fff"/><rect x="439" y="56" width="9" height="9" fill="#fff"/><rect x="439" y="86" width="9" height="9" fill="#fff"/><rect x="439" y="96" width="9" height="9" fill="#fff"/><rect x="439" y="116" width="9" height="9" fill="#fff"/><rect x="439" y="136" width="9" height="9" fill="#fff"/><rect x="439" y="146" width="9" height="9" fill="#fff"/><rect x="439" y="166" width="9" height="9" fill="#fff"/><rect x="449" y="46" width="9" height="9" fill="#fff"/><rect x="449" y="56" width="9" height="9" fill="#fff"/><rect x="449" y="66" width="9" height="9" fill="#fff"/><rect x="449" y="76" width="9" height="9" fill="#fff"/><rect x="449" y="116" width="9" height="9" fill="#fff"/><rect x="449" y="126" width="9" height="9" fill="#fff"/><rect x="449" y="136" width="9" height="9" fill="#fff"/><rect x="449" y="146" width="9" height="9" fill="#fff"/><rect x="459" y="46" width="9" height="9" fill="#fff"/><rect x="459" y="86" width="9" height="9" fill="#fff"/><rect x="459" y="106" width="9" height="9" fill="#fff"/><rect x="459" y="126" width="9" height="9" fill="#fff"/><rect x="469" y="86" width="9" height="9" fill="#fff"/><rect x="469" y="116" width="9" height="9" fill="#fff"/><rect x="469" y="126" width="9" height="9" fill="#fff"/><rect x="469" y="136" width="9" height="9" fill="#fff"/><rect x="469" y="146" width="9" height="9" fill="#fff"/><rect x="479" y="156" width="9" height="9" fill="#fff"/><rect x="489" y="56" width="9" height="9" fill="#fff"/><rect x="489" y="76" width="9" height="9" fill="#fff"/><rect x="489" y="86" width="9" height="9" fill="#fff"/><rect x="489" y="96" width="9" height="9" fill="#fff"/><rect x="489" y="106" width="9" height="9" fill="#fff"/><rect x="489" y="116" width="9" height="9" fill="#fff"/><rect x="489" y="126" width="9" height="9" fill="#fff"/><rect x="489" y="136" width="9" height="9" fill="#fff"/><rect x="499" y="66" width="9" height="9" fill="#fff"/><rect x="499" y="76" width="9" height="9" fill="#fff"/><rect x="499" y="86" width="9" height="9" fill="#fff"/><rect x="499" y="96" width="9" height="9" fill="#fff"/><rect x="499" y="106" width="9" height="9" fill="#fff"/><rect x="509" y="76" width="9" height="9" fill="#fff"/><rect x="509" y="106" width="9" height="9" fill="#fff"/><rect x="509" y="126" width="9" height="9" fill="#fff"/><rect x="509" y="156" width="9" height="9" fill="#fff"/><rect x="519" y="156" width="9" height="9" fill="#fff"/><rect x="529" y="66" width="9" height="9" fill="#fff"/><rect x="529" y="96" width="9" height="9" fill="#fff"/><rect x="529" y="146" width="9" height="9" fill="#fff"/><rect x="529" y="156" width="9" height="9" fill="#fff"/><rect x="539" y="96" width="9" height="9" fill="#fff"/><rect x="539" y="106" width="9" height="9" fill="#fff"/><rect x="549" y="46" width="9" height="9" fill="#fff"/><rect x="549" y="66" width="9" height="9" fill="#fff"/><rect x="549" y="116" width="9" height="9" fill="#fff"/><rect x="549" y="156" width="9" height="9" fill="#fff"/><rect x="559" y="46" width="9" height="9" fill="#fff"/><rect x="559" y="66" width="9" height="9" fill="#fff"/><rect x="559" y="86" width="9" height="9" fill="#fff"/><rect x="559" y="126" width="9" height="9" fill="#fff"/><rect x="569" y="46" width="9" height="9" fill="#fff"/><rect x="569" y="86" width="9" height="9" fill="#fff"/><rect x="569" y="126" width="9" height="9" fill="#fff"/><rect x="569" y="136" width="9" height="9" fill="#fff"/><rect x="589" y="156" width="9" height="9" fill="#fff"/><rect x="609" y="116" width="9" height="9" fill="#fff"/></mask></defs><g mask="url(#dz)"><text x="36" y="132" font-family="'DM Sans',sans-serif" font-weight="800" font-size="96" letter-spacing="-1" fill="#c8e58c">doll(art)</text></g><rect x="616" y="74" width="8" height="8" fill="#c8e58c" opacity="0.55"/><rect x="661" y="87" width="8" height="8" fill="#c8e58c" opacity="0.53"/><rect x="671" y="75" width="8" height="8" fill="#c8e58c" opacity="0.52"/><rect x="665" y="73" width="8" height="8" fill="#c8e58c" opacity="0.50"/><rect x="632" y="126" width="5" height="5" fill="#c8e58c" opacity="0.49"/><rect x="637" y="69" width="5" height="5" fill="#c8e58c" opacity="0.47"/><rect x="637" y="92" width="5" height="5" fill="#c8e58c" opacity="0.45"/><rect x="649" y="137" width="5" height="5" fill="#c8e58c" opacity="0.44"/><rect x="688" y="73" width="5" height="5" fill="#c8e58c" opacity="0.42"/><rect x="667" y="79" width="5" height="5" fill="#c8e58c" opacity="0.41"/><rect x="686" y="65" width="8" height="8" fill="#c8e58c" opacity="0.39"/><rect x="652" y="93" width="8" height="8" fill="#c8e58c" opacity="0.37"/><rect x="651" y="91" width="5" height="5" fill="#c8e58c" opacity="0.36"/><rect x="665" y="148" width="5" height="5" fill="#c8e58c" opacity="0.34"/><rect x="656" y="72" width="8" height="8" fill="#c8e58c" opacity="0.33"/><rect x="643" y="69" width="8" height="8" fill="#c8e58c" opacity="0.31"/><rect x="696" y="108" width="8" height="8" fill="#c8e58c" opacity="0.29"/><rect x="660" y="119" width="8" height="8" fill="#c8e58c" opacity="0.28"/><rect x="649" y="139" width="8" height="8" fill="#c8e58c" opacity="0.26"/><rect x="708" y="138" width="8" height="8" fill="#c8e58c" opacity="0.25"/><rect x="649" y="93" width="8" height="8" fill="#c8e58c" opacity="0.23"/><rect x="671" y="131" width="8" height="8" fill="#c8e58c" opacity="0.21"/><rect x="706" y="108" width="8" height="8" fill="#c8e58c" opacity="0.20"/><rect x="659" y="147" width="8" height="8" fill="#c8e58c" opacity="0.18"/><rect x="698" y="90" width="5" height="5" fill="#c8e58c" opacity="0.17"/><rect x="655" y="101" width="5" height="5" fill="#c8e58c" opacity="0.15"/><rect x="702" y="148" width="5" height="5" fill="#c8e58c" opacity="0.13"/><rect x="662" y="80" width="5" height="5" fill="#c8e58c" opacity="0.12"/><rect x="716" y="95" width="8" height="8" fill="#c8e58c" opacity="0.10"/><rect x="677" y="99" width="8" height="8" fill="#c8e58c" opacity="0.09"/><rect x="692" y="97" width="5" height="5" fill="#c8e58c" opacity="0.07"/><rect x="724" y="96" width="8" height="8" fill="#c8e58c" opacity="0.06"/><rect x="704" y="67" width="8" height="8" fill="#c8e58c" opacity="0.06"/><rect x="721" y="144" width="5" height="5" fill="#c8e58c" opacity="0.06"/></svg>