<svg viewBox="0 0 200 200" width="100%" xmlns="http://www.w3.org/2000/svg"><defs><mask id="iz"><rect x="0" y="0" width="120" height="200" fill="#fff"/><rect x="120" y="40" width="9" height="9" fill="#fff"/><rect x="120" y="50" width="9" height="9" fill="#fff"/><rect x="120" y="60" width="9" height="9" fill="#fff"/><rect x="120" y="70" width="9" height="9" fill="#fff"/><rect x="120" y="80" width="9" height="9" fill="#fff"/><rect x="120" y="90" width="9" height="9" fill="#fff"/><rect x="120" y="100" width="9" height="9" fill="#fff"/><rect x="120" y="110" width="9" height="9" fill="#fff"/><rect x="120" y="120" width="9" height="9" fill="#fff"/><rect x="120" y="130" width="9" height="9" fill="#fff"/><rect x="120" y="140" width="9" height="9" fill="#fff"/><rect x="120" y="150" width="9" height="9" fill="#fff"/><rect x="120" y="160" width="9" height="9" fill="#fff"/><rect x="130" y="40" width="9" height="9" fill="#fff"/><rect x="130" y="50" width="9" height="9" fill="#fff"/><rect x="130" y="60" width="9" height="9" fill="#fff"/><rect x="130" y="80" width="9" height="9" fill="#fff"/><rect x="130" y="100" width="9" height="9" fill="#fff"/><rect x="130" y="110" width="9" height="9" fill="#fff"/><rect x="130" y="120" width="9" height="9" fill="#fff"/><rect x="130" y="130" width="9" height="9" fill="#fff"/><rect x="130" y="140" width="9" height="9" fill="#fff"/><rect x="130" y="150" width="9" height="9" fill="#fff"/><rect x="130" y="160" width="9" height="9" fill="#fff"/><rect x="140" y="50" width="9" height="9" fill="#fff"/><rect x="140" y="60" width="9" height="9" fill="#fff"/><rect x="140" y="70" width="9" height="9" fill="#fff"/><rect x="140" y="80" width="9" height="9" fill="#fff"/><rect x="140" y="90" width="9" height="9" fill="#fff"/><rect x="140" y="100" width="9" height="9" fill="#fff"/><rect x="140" y="130" width="9" height="9" fill="#fff"/><rect x="140" y="150" width="9" height="9" fill="#fff"/><rect x="140" y="160" width="9" height="9" fill="#fff"/><rect x="150" y="40" width="9" height="9" fill="#fff"/><rect x="150" y="50" width="9" height="9" fill="#fff"/><rect x="150" y="60" width="9" height="9" fill="#fff"/><rect x="150" y="70" width="9" height="9" fill="#fff"/><rect x="150" y="80" width="9" height="9" fill="#fff"/><rect x="150" y="90" width="9" height="9" fill="#fff"/><rect x="150" y="110" width="9" height="9" fill="#fff"/><rect x="150" y="150" width="9" height="9" fill="#fff"/><rect x="150" y="160" width="9" height="9" fill="#fff"/><rect x="160" y="40" width="9" height="9" fill="#fff"/><rect x="160" y="50" width="9" height="9" fill="#fff"/><rect x="160" y="60" width="9" height="9" fill="#fff"/><rect x="160" y="100" width="9" height="9" fill="#fff"/><rect x="160" y="130" width="9" height="9" fill="#fff"/><rect x="160" y="160" width="9" height="9" fill="#fff"/><rect x="170" y="40" width="9" height="9" fill="#fff"/><rect x="170" y="80" width="9" height="9" fill="#fff"/><rect x="170" y="90" width="9" height="9" fill="#fff"/><rect x="170" y="120" width="9" height="9" fill="#fff"/><rect x="170" y="130" width="9" height="9" fill="#fff"/><rect x="170" y="140" width="9" height="9" fill="#fff"/><rect x="180" y="140" width="9" height="9" fill="#fff"/></mask></defs><g mask="url(#iz)"><text x="100" y="140" text-anchor="middle" font-family="'DM Sans',sans-serif" font-weight="800" font-size="124" fill="#c8e58c">(a)</text></g><rect x="180" y="136" width="7" height="7" fill="#c8e58c" opacity="0.50"/><rect x="183" y="107" width="7" height="7" fill="#c8e58c" opacity="0.45"/><rect x="186" y="84" width="7" height="7" fill="#c8e58c" opacity="0.40"/><rect x="189" y="114" width="7" height="7" fill="#c8e58c" opacity="0.35"/><rect x="192" y="84" width="7" height="7" fill="#c8e58c" opacity="0.30"/><rect x="195" y="87" width="7" height="7" fill="#c8e58c" opacity="0.25"/><rect x="198" y="98" width="7" height="7" fill="#c8e58c" opacity="0.20"/><rect x="201" y="134" width="7" height="7" fill="#c8e58c" opacity="0.15"/><rect x="204" y="73" width="7" height="7" fill="#c8e58c" opacity="0.10"/></svg>